<svg xmlns="http://www.w3.org/2000/svg" width="43" height="26" fill="none"><rect width="43" height="25.05" fill="#fff" rx="4"/><path fill="#0072CE" fill-rule="evenodd" d="M36.295 14.473h-1.52c-.15 0-.252.005-.336.06-.088.056-.122.137-.122.244 0 .127.074.214.182.251.088.03.182.038.321.038l.452.012c.456.011.76.087.946.272.034.026.054.055.077.084v-.961Zm0 2.226c-.202.286-.597.432-1.131.432h-1.61v-.724h1.603c.16 0 .27-.02.338-.084a.293.293 0 0 0 .098-.22.274.274 0 0 0-.102-.223c-.06-.052-.148-.075-.293-.075-.783-.026-1.76.023-1.76-1.045 0-.49.322-1.006 1.197-1.006h1.66v-.671h-1.543c-.465 0-.803.107-1.043.275v-.276h-2.282c-.364 0-.793.088-.995.276v-.276h-4.075v.276c-.324-.226-.872-.276-1.124-.276h-2.688v.276c-.256-.24-.827-.276-1.175-.276h-3.008l-.688.722-.645-.722h-4.493v4.712h4.409l.709-.733.668.733 2.718.002v-1.108h.267c.36.005.786-.009 1.16-.166v1.272h2.242v-1.228h.108c.139 0 .152.005.152.139v1.089h6.81c.432 0 .884-.107 1.134-.302v.302h2.16c.45 0 .888-.061 1.222-.217v-.878ZM32.97 15.35c.162.163.25.368.25.715 0 .727-.47 1.066-1.31 1.066h-1.624v-.724h1.617c.159 0 .27-.02.34-.084a.295.295 0 0 0-.002-.443c-.064-.052-.152-.075-.297-.075-.78-.026-1.756.023-1.756-1.045 0-.49.318-1.006 1.192-1.006h1.67v.719h-1.528c-.152 0-.25.005-.334.061-.091.055-.125.136-.125.243a.26.26 0 0 0 .182.251c.088.03.182.039.324.039l.45.011c.452.011.762.087.951.272Zm-7.521-.208c-.112.064-.25.069-.412.069h-1.013v-.758h1.027c.148 0 .297.003.398.06.107.055.172.16.172.304 0 .145-.064.261-.172.325Zm.503.42a.906.906 0 0 1 .408.283c.118.165.135.319.138.617v.669h-.837v-.423c0-.203.02-.503-.134-.66-.122-.121-.308-.15-.612-.15h-.89v1.233h-.838v-3.377h1.924c.422 0 .73.018 1.003.16.263.153.429.364.429.75a.947.947 0 0 1-.591.898Zm1.053-1.808h2.782v.699h-1.952v.613h1.904v.69h-1.904v.671l1.952.003v.7h-2.782v-3.376Zm-5.624 1.559h-1.077v-.86h1.087c.3 0 .51.118.51.414 0 .292-.2.445-.52.445Zm-1.908 1.51-1.28-1.375 1.28-1.331v2.707Zm-3.305-.396h-2.05v-.672h1.83v-.689h-1.83v-.614h2.09l.913.985-.953.99Zm6.627-1.56c0 .938-.723 1.131-1.451 1.131h-1.04v1.133h-1.62l-1.027-1.118-1.067 1.118H13.29v-3.377h3.352l1.026 1.107 1.06-1.107h2.663c.662 0 1.405.178 1.405 1.113ZM9.312 9.863l-.57-1.346-.568 1.346h1.138Zm12.568-.536c-.114.068-.25.07-.412.07h-1.013v-.75h1.027c.145 0 .297.006.395.06.108.05.175.155.175.3 0 .147-.064.266-.172.32Zm7.224.536-.577-1.346-.573 1.346h1.15ZM15.638 11.32h-.854l-.003-2.644-1.21 2.644h-.731l-1.212-2.646v2.646H9.933l-.32-.753H7.877l-.324.753h-.905l1.493-3.376h1.238l1.418 3.196V7.944h1.36l1.091 2.29 1.002-2.29h1.388v3.376Zm3.406 0H16.26V7.944h2.785v.703h-1.95v.608h1.903v.692h-1.904v.675h1.951v.698Zm3.926-2.467a.951.951 0 0 1-.587.9.966.966 0 0 1 .412.284c.118.168.138.318.138.62v.663h-.84l-.004-.426c0-.203.02-.495-.131-.658-.122-.118-.308-.144-.608-.144h-.895v1.228h-.833V7.944h1.917c.426 0 .74.01 1.01.162.263.15.421.37.421.747Zm1.334 2.467h-.85V7.944h.85v3.376Zm9.868 0H32.99l-1.58-2.534v2.534h-1.697l-.325-.753h-1.731l-.315.753h-.975c-.405 0-.919-.087-1.209-.374-.293-.286-.445-.675-.445-1.288 0-.501.09-.959.449-1.32.27-.27.692-.394 1.266-.394h.807v.723h-.79c-.304 0-.476.044-.642.2-.142.142-.24.411-.24.765 0 .362.075.622.23.793.128.133.361.174.581.174h.374l1.175-2.655h1.25l1.41 3.193V7.944h1.27l1.465 2.351v-2.35h.854v3.375Zm-27.534.663h1.425l.32-.75h.72l.32.75h2.802v-.573l.25.575h1.455l.25-.584v.582h6.964l-.003-1.23h.135c.094.002.122.01.122.162v1.068H25v-.287c.29.151.742.287 1.337.287h1.515l.324-.75h.72l.316.75h2.92v-.712l.443.712h2.34V7.275h-2.316v.556l-.324-.556h-2.377v.556l-.297-.556h-3.21c-.537 0-1.01.072-1.391.275v-.275h-2.215v.275c-.243-.209-.574-.275-.942-.275h-8.092l-.543 1.216-.558-1.216h-2.548v.556l-.28-.556H7.648l-1.01 2.238v2.47Z" clip-rule="evenodd"/></svg>