<svg xmlns="http://www.w3.org/2000/svg" width="18" height="16" fill="none"><path fill="#fff" d="M6.715 15.384c-.778 0-1.58-.063-2.385-.189-1.42-.223-2.857-.965-3.264-1.188L0 13.424l1.155-.38c1.262-.414 2.03-.672 2.98-1.075-.952-.461-1.685-1.29-2.038-2.362l-.269-.815.22.033a4.006 4.006 0 0 1-.501-.618C1.092 7.517.85 6.672.903 5.949l.05-.712.426.166C1.2 5.063 1.07 4.7.993 4.32a4.118 4.118 0 0 1 .439-2.773l.371-.681.497.596C3.87 3.35 5.858 4.468 8.219 4.796a3.54 3.54 0 0 1 .215-1.881 3.522 3.522 0 0 1 1.431-1.642 4.3 4.3 0 0 1 2.496-.612 3.986 3.986 0 0 1 2.45 1.01c.328-.085.57-.176.897-.3.197-.073.42-.157.699-.253l1.028-.355-.67 1.915.137-.008L18 2.62l-.649.887c-.037.05-.047.065-.06.085-.052.079-.117.177-1.008 1.366a1.678 1.678 0 0 0-.314 1.093c.08 1.546-.11 2.944-.564 4.157a7.355 7.355 0 0 1-1.974 2.925c-1.09.982-2.482 1.654-4.134 1.998-.81.169-1.68.253-2.582.253Z"/></svg>