<svg xmlns="http://www.w3.org/2000/svg" width="43" height="26" fill="none"><rect width="43" height="25.05" fill="#fff" rx="4"/><path fill="#339" fill-rule="evenodd" d="M24.517 12.525c0 4.56-3.833 8.256-8.56 8.256s-8.559-3.696-8.559-8.256c0-4.56 3.832-8.255 8.56-8.255 4.726 0 8.559 3.696 8.559 8.255" clip-rule="evenodd"/><path fill="#06C" fill-rule="evenodd" d="M27.448 4.27c-2.211 0-4.227.809-5.746 2.136-.309.27-.598.563-.864.874h1.73c.236.277.454.569.652.874h-3.034c-.182.281-.347.573-.493.875h4.02c.137.283.258.574.362.873H19.33a8.01 8.01 0 0 0-.248.875h5.242a7.998 7.998 0 0 1-.249 4.37H19.33c.104.3.225.592.363.875h4.02a8.163 8.163 0 0 1-.494.874h-3.033c.198.305.416.597.652.874h1.729a8.371 8.371 0 0 1-.864.874 8.704 8.704 0 0 0 5.745 2.137c4.727 0 8.56-3.696 8.56-8.256 0-4.56-3.833-8.255-8.56-8.255" clip-rule="evenodd"/><path fill="#06C" fill-rule="evenodd" d="M34.866 17.127c0-.147.124-.266.276-.266.153 0 .277.119.277.266a.272.272 0 0 1-.276.267.272.272 0 0 1-.277-.267Zm.276.203c.117 0 .21-.09.21-.203a.206.206 0 0 0-.21-.202c-.115 0-.21.09-.21.202 0 .112.095.203.21.203Zm-.037-.086h-.056v-.234h.102c.022 0 .043 0 .062.012a.07.07 0 0 1 .03.058.064.064 0 0 1-.04.061l.043.103h-.062l-.037-.093h-.042v.093Zm0-.133h.032c.011 0 .024.001.034-.004a.032.032 0 0 0 .014-.027.03.03 0 0 0-.013-.024c-.01-.006-.026-.004-.036-.004h-.03v.06Z" clip-rule="evenodd"/><path fill="#006" fill-rule="evenodd" d="M15.464 10.635c-.077.324-.117.507-.22.902-.644-.264-1.507-.401-2.169-.002-.625.383-.836.982-.79 1.645.046.319.294.63.643.765.606.216 1.185.137 1.828-.18-.091.4-.16.712-.24.998-.772.208-1.505.276-2.277.029-.69-.232-1.25-.83-1.296-1.477a2.435 2.435 0 0 1 1.406-2.586c.974-.423 2.085-.35 3.115-.094M26.37 14.323c-.203.197-.55.627-1.489.627-.855 0-1.456-.609-1.152-1.976l.354-1.609h1.306l-.354 1.61c-.12.547-.092.963.484.963.68 0 .883-.396 1.011-.964l.355-1.609h1.362l-.586 2.587a9.6 9.6 0 0 0-.167.942h-1.226l.102-.57M28.68 12.481c0 .448.305.754.997.982.535.18.619.233.619.39 0 .223-.239.318-.754.318-.392 0-.756-.038-1.178-.136 0 0-.165.732-.182.815.366.063 1 .1 1.37.1 1.382 0 2.023-.373 2.023-1.177 0-.482-.269-.765-.925-.982-.553-.175-.614-.216-.614-.383 0-.188.218-.287.643-.287.256 0 .614.021.947.055l.184-.82a12.27 12.27 0 0 0-1.156-.07c-1.468 0-1.978.546-1.973 1.195M15.962 11.365h1.366l-.778 3.529h-1.367l.779-3.529M23.768 11.35c-.964-.123-1.239.334-1.498.561.031-.184.088-.363.077-.546h-1.255c-.173 1.093-.48 2.199-.72 3.291l-.062.237h1.42c.163-.716.352-1.798.569-2.125.217-.327.578-.589 1.053-.431l.416-.987M20.788 11.35c-.963-.123-1.238.334-1.497.561.031-.184.088-.363.076-.546h-1.255c-.172 1.093-.479 2.199-.718 3.291l-.063.237h1.42c.163-.716.351-1.798.569-2.125.217-.327.578-.589 1.052-.431l.416-.987" clip-rule="evenodd"/><path fill="#fff" fill-rule="evenodd" d="M31.994 14.369c0-.148.124-.267.277-.267.152 0 .276.12.276.267a.272.272 0 0 1-.276.266.272.272 0 0 1-.277-.266Zm.277.202c.116 0 .21-.09.21-.202a.207.207 0 0 0-.21-.203c-.116 0-.21.09-.21.203 0 .111.094.202.21.202Zm-.038-.085h-.056v-.235h.102c.021 0 .043 0 .062.012a.07.07 0 0 1 .031.059.064.064 0 0 1-.042.06l.045.104h-.063l-.037-.093h-.042v.092Zm0-.133h.032c.011 0 .024 0 .034-.005a.032.032 0 0 0 .014-.027.031.031 0 0 0-.013-.024c-.01-.005-.026-.004-.037-.004h-.03v.06ZM15.731 10.377c-.076.324-.116.508-.22.901-.643-.262-1.506-.4-2.168-.001-.625.383-.836.982-.79 1.645.045.319.293.63.643.766.606.215 1.184.136 1.828-.181-.092.4-.16.713-.24.998-.773.208-1.506.276-2.277.029-.69-.232-1.25-.83-1.296-1.477a2.434 2.434 0 0 1 1.406-2.587c.974-.422 2.085-.349 3.114-.093M26.638 14.065c-.204.197-.55.627-1.49.627-.855 0-1.399-.609-1.095-1.976l.354-1.609h1.306l-.354 1.61c-.12.547-.092.963.485.963.679 0 .882-.396 1.01-.964l.355-1.609h1.306l-.587 2.587c-.066.303-.13.625-.167.942h-1.226l.103-.57M28.948 12.223c0 .448.305.754.997.982.535.18.618.233.618.39 0 .223-.238.318-.753.318-.392 0-.757-.038-1.178-.136 0 0-.166.732-.183.816.367.062 1.001.1 1.37.1 1.383 0 2.024-.373 2.024-1.178 0-.482-.269-.764-.925-.982-.553-.175-.615-.216-.615-.383 0-.187.22-.287.644-.287.256 0 .614.021.947.055l.183-.82c-.34-.038-.857-.07-1.155-.07-1.468 0-1.979.546-1.974 1.195M16.286 11.107h1.31l-.779 3.529h-1.31l.779-3.529M24.035 11.092c-.963-.123-1.238.334-1.497.561.03-.184.088-.363.076-.546h-1.198c-.172 1.093-.48 2.198-.719 3.291l-.063.237h1.364c.163-.716.351-1.798.569-2.125.216-.327.578-.588 1.052-.431l.416-.987M21.056 11.092c-.964-.123-1.239.334-1.498.561.031-.184.088-.363.077-.546h-1.198c-.173 1.093-.48 2.198-.72 3.291l-.062.237h1.364c.163-.716.35-1.798.568-2.125.217-.327.579-.588 1.053-.431l.416-.987" clip-rule="evenodd"/></svg>