<svg xmlns="http://www.w3.org/2000/svg" width="18" height="18" fill="none"><path fill="#fff" d="M9 0C4.057 0 0 4.057 0 9c0 1.632.44 3.22 1.274 4.61L0 18l4.39-1.274A8.94 8.94 0 0 0 9 18c4.943 0 9-4.057 9-9s-4.057-9-9-9Zm5.627 12.803-.419.418c-.592.593-1.955.546-2.83.377-2.911-.562-6.305-3.852-6.96-6.7-.324-1.412-.145-2.639.323-3.107l.42-.419a.593.593 0 0 1 .837 0l1.675 1.676c.112.111.173.26.173.418a.586.586 0 0 1-.173.419l-.419.419a1.187 1.187 0 0 0 0 1.675l2.766 2.73a1.184 1.184 0 0 0 1.676 0l.418-.419a.619.619 0 0 1 .838 0l1.675 1.675a.592.592 0 0 1 0 .838Z"/></svg>