<svg xmlns="http://www.w3.org/2000/svg" width="43" height="26" fill="none"><rect width="43" height="25.05" fill="#fff" rx="4"/><path fill="#C00" fill-rule="evenodd" d="M35.972 12.518c0 4.616-3.838 8.357-8.574 8.357-4.734 0-8.573-3.741-8.573-8.357s3.839-8.357 8.573-8.357c4.736 0 8.574 3.741 8.574 8.357Z" clip-rule="evenodd"/><path fill="#06C" fill-rule="evenodd" d="M20.775 17.825a8.301 8.301 0 0 1-.653-.885h3.039c.182-.284.347-.58.494-.885h-4.026a8.164 8.164 0 0 1-.364-.885h4.752a8.196 8.196 0 0 0 .248-4.422h-5.247c.066-.301.15-.596.249-.885h4.75a8.263 8.263 0 0 0-.363-.884H19.63c.147-.306.313-.6.494-.885h3.037a8.456 8.456 0 0 0-.653-.884h-1.73c.266-.315.555-.611.865-.885a8.667 8.667 0 0 0-5.757-2.164c-4.736 0-8.574 3.741-8.574 8.357s3.838 8.357 8.574 8.357c2.215 0 4.235-.82 5.757-2.164.31-.274.6-.57.866-.886h-1.733Z" clip-rule="evenodd"/><path fill="#006" fill-rule="evenodd" d="M21.52 14.776c-.367.095-.721.141-1.096.14-1.195 0-1.817-.531-1.817-1.546 0-1.185.792-2.057 1.868-2.057.88 0 1.441.489 1.441 1.255 0 .254-.038.502-.131.851H19.66c-.076.496.295.714.927.714.379 0 .72-.067 1.1-.215l-.167.858Zm-.572-2.056c0-.074.118-.606-.497-.618-.34 0-.583.22-.681.618h1.178ZM22.24 12.488c0 .438.252.74.827.966.44.175.509.226.509.383 0 .217-.194.316-.625.314a3.648 3.648 0 0 1-.968-.135l-.155.799c.31.07.745.093 1.13.101 1.148 0 1.678-.366 1.678-1.158 0-.475-.221-.755-.766-.964-.456-.177-.51-.216-.51-.376 0-.189.181-.284.533-.284.214 0 .506.019.783.051l.155-.803a8.664 8.664 0 0 0-.959-.068c-1.215 0-1.636.533-1.632 1.174ZM18.024 14.86h-.891l.021-.365c-.272.287-.634.421-1.125.421-.582 0-.98-.388-.98-.945 0-.847.692-1.336 1.883-1.336.123 0 .278.009.438.027a.731.731 0 0 0 .042-.224c0-.232-.187-.318-.688-.318a4.216 4.216 0 0 0-1.137.155l.152-.778c.535-.132.885-.184 1.282-.184.922 0 1.409.353 1.409 1.015.008.177-.055.532-.087.687-.036.226-.292 1.535-.319 1.844Zm-.782-1.547a2.18 2.18 0 0 0-.24-.014c-.608 0-.916.177-.916.525 0 .219.15.355.385.355.437 0 .752-.356.77-.866ZM26.514 14.804c-.292.078-.52.112-.767.112-.546 0-.844-.272-.844-.756-.017-.133.116-.748.146-.92.03-.171.504-2.676.504-2.676h1.06l-.16.829h.544l-.148.845h-.546s-.3 1.469-.3 1.58c0 .179.11.256.365.256.121 0 .215-.011.288-.032l-.142.762ZM31.255 11.313c-.777 0-1.385.313-1.738.833l.306-.772c-.564-.202-.928.086-1.257.496 0 0-.055.068-.11.13v-.607h-.997c-.134 1.071-.373 2.159-.56 3.233l-.045.234h1.072c.102-.545.185-.988.268-1.34.228-.969.611-1.265 1.186-1.134-.132.278-.205.6-.205.957 0 .866.482 1.573 1.679 1.573 1.208 0 2.083-.628 2.083-2.063 0-.864-.583-1.54-1.682-1.54Zm-.312 2.762c-.378.006-.608-.304-.608-.767 0-.549.335-1.17.873-1.17.434 0 .583.337.583.694 0 .78-.328 1.243-.848 1.243ZM14.55 14.86h-1.068l.634-3.258-1.46 3.258h-.973l-.178-3.238-.636 3.238H9.9l.824-4.237h1.668l.14 2.362 1.056-2.362h1.802l-.842 4.237Z" clip-rule="evenodd"/><path fill="#fff" fill-rule="evenodd" d="M21.787 14.515c-.366.095-.72.141-1.095.14-1.195 0-1.817-.531-1.817-1.546 0-1.185.792-2.057 1.867-2.057.88 0 1.442.489 1.442 1.255 0 .254-.038.5-.131.852h-2.125c-.076.495.295.712.927.712.378 0 .72-.066 1.1-.215l-.168.86Zm-.571-2.056c0-.074.118-.606-.497-.618-.34 0-.583.22-.682.619h1.179ZM22.508 12.227c0 .438.252.74.827.966.44.175.509.226.509.382 0 .218-.194.317-.625.315a3.65 3.65 0 0 1-.968-.135l-.155.798c.31.07.745.094 1.13.102 1.148 0 1.678-.366 1.678-1.158 0-.475-.221-.755-.766-.964-.456-.177-.51-.216-.51-.376 0-.189.181-.284.533-.284.213 0 .505.019.783.052l.155-.803a8.525 8.525 0 0 0-.958-.07c-1.216 0-1.637.534-1.633 1.175ZM18.292 14.598h-.891l.021-.364c-.272.287-.634.42-1.125.42-.582 0-.98-.387-.98-.944 0-.847.692-1.336 1.883-1.336.122 0 .278.009.438.026a.725.725 0 0 0 .042-.223c0-.233-.187-.318-.688-.318a4.213 4.213 0 0 0-1.137.155l.152-.778c.535-.133.885-.184 1.282-.184.922 0 1.409.353 1.409 1.015.008.177-.056.53-.087.687-.037.226-.292 1.535-.319 1.844Zm-.782-1.546a2.043 2.043 0 0 0-.24-.014c-.608 0-.916.176-.916.524 0 .22.15.356.385.356.437 0 .752-.356.77-.866ZM26.782 14.543c-.293.078-.52.113-.767.113-.546 0-.844-.273-.844-.757-.017-.133.116-.748.146-.92.03-.171.504-2.676.504-2.676h1.06l-.16.829h.544l-.148.845h-.546s-.3 1.469-.3 1.58c0 .179.11.256.364.256.122 0 .216-.01.289-.032l-.142.762ZM32.06 12.57c0 .782-.33 1.244-.849 1.244-.378.005-.608-.304-.608-.767 0-.549.335-1.17.873-1.17.434 0 .583.336.583.693Zm1.144.022c0-.865-.583-1.54-1.68-1.54-1.264 0-2.081.82-2.081 2.03 0 .865.482 1.573 1.679 1.573 1.208 0 2.082-.628 2.082-2.063ZM27.727 11.131c-.135 1.072-.373 2.16-.56 3.234l-.045.234h1.072c.386-2.075.516-2.666 1.325-2.458l.39-.982c-.565-.202-.929.087-1.258.497.03-.185.086-.363.073-.525h-.997ZM14.817 14.599H13.75l.634-3.258-1.46 3.258h-.973l-.178-3.239-.636 3.239h-.969l.825-4.237h1.668l.088 2.623 1.174-2.623h1.736l-.842 4.237Z" clip-rule="evenodd"/></svg>