<svg xmlns="http://www.w3.org/2000/svg" width="43" height="26" fill="none"><rect width="43" height="25.05" fill="#fff" rx="4"/><path fill="#C00" fill-rule="evenodd" d="M24.135 12.728c0 4.5-3.756 8.147-8.391 8.147s-8.392-3.648-8.392-8.147c0-4.5 3.757-8.148 8.392-8.148s8.391 3.648 8.391 8.148" clip-rule="evenodd"/><path fill="#F90" fill-rule="evenodd" d="M27.01 4.58a8.503 8.503 0 0 0-5.634 2.109 8.427 8.427 0 0 0-.847.862h1.696c.231.274.445.562.64.863H19.89a8.1 8.1 0 0 0-.484.863h3.942c.135.28.253.567.355.863h-4.652c-.097.28-.179.569-.244.862h5.14a7.975 7.975 0 0 1-.244 4.314h-4.652c.102.295.22.583.355.863h3.942a8.109 8.109 0 0 1-.484.863H19.89c.194.3.407.588.64.862h1.694c-.26.307-.543.596-.847.863a8.502 8.502 0 0 0 5.633 2.108c4.634 0 8.391-3.648 8.391-8.147 0-4.5-3.757-8.148-8.39-8.148" clip-rule="evenodd"/><path fill="#006" fill-rule="evenodd" d="M13.784 13.62a1.605 1.605 0 0 0-.203-.014c-.516 0-.777.172-.777.511 0 .21.127.343.326.343.371 0 .638-.343.654-.84Zm.663 1.497h-.755l.017-.348c-.23.275-.537.406-.954.406-.494 0-.833-.374-.833-.918 0-.818.59-1.296 1.6-1.296.103 0 .236.01.371.026a.808.808 0 0 0 .036-.218c0-.222-.159-.306-.585-.306a3.12 3.12 0 0 0-.964.152l.127-.756c.453-.13.753-.178 1.09-.178.782 0 1.197.341 1.196.986.001.173-.028.385-.074.666-.08.486-.249 1.53-.272 1.784ZM11.541 15.117h-.911l.522-3.177-1.165 3.177h-.621l-.077-3.159-.548 3.16h-.853l.712-4.134h1.31l.08 2.314.799-2.314h1.457l-.705 4.133M28.136 13.62a1.598 1.598 0 0 0-.203-.014c-.517 0-.778.172-.778.511 0 .21.127.343.327.343.37 0 .638-.343.654-.84Zm.663 1.497h-.755l.017-.348c-.23.275-.537.406-.954.406-.495 0-.833-.374-.833-.918 0-.818.59-1.296 1.6-1.296.103 0 .235.01.37.026a.804.804 0 0 0 .036-.218c0-.222-.158-.306-.584-.306a3.128 3.128 0 0 0-.965.152l.127-.756c.454-.13.754-.178 1.09-.178.783 0 1.197.341 1.196.986a4.16 4.16 0 0 1-.074.666c-.078.486-.248 1.53-.271 1.784ZM18.496 15.066c-.25.076-.444.11-.655.11-.466 0-.72-.26-.72-.74-.006-.148.067-.538.125-.895.053-.314.395-2.293.395-2.293h.906l-.106.508h.547l-.123.808h-.55c-.105.64-.255 1.435-.256 1.54 0 .174.095.25.312.25.104 0 .184-.01.245-.032l-.12.744M21.272 15.039a3.164 3.164 0 0 1-.929.136c-1.014-.001-1.542-.515-1.542-1.5 0-1.148.672-1.994 1.585-1.994.746 0 1.223.474 1.223 1.216 0 .247-.032.487-.112.827h-1.803c-.06.487.26.69.788.69.323 0 .616-.064.94-.21l-.15.835Zm-.509-1.992c.005-.07.096-.6-.422-.6-.288 0-.494.213-.578.6h1ZM14.993 12.819c0 .425.213.718.694.938.369.169.426.219.426.371 0 .21-.163.304-.523.304a2.63 2.63 0 0 1-.816-.133l-.125.777c.207.043.391.084.948.1.96 0 1.405-.356 1.405-1.124 0-.462-.186-.733-.642-.937-.382-.17-.426-.208-.426-.365 0-.182.151-.274.446-.274.178 0 .422.018.654.05l.13-.78a6.338 6.338 0 0 0-.802-.065c-1.019 0-1.372.517-1.369 1.138M25.703 11.77c.253 0 .49.064.814.223l.15-.897c-.135-.05-.604-.35-1.002-.35-.61 0-1.126.294-1.488.779-.529-.17-.746.173-1.012.516l-.237.053c.018-.112.034-.224.029-.338h-.837c-.114 1.04-.317 2.094-.475 3.135l-.042.226h.912c.152-.96.235-1.574.286-1.99l.343-.185c.051-.185.211-.248.533-.24-.042.22-.064.45-.064.689 0 1.1.611 1.784 1.592 1.784.252 0 .47-.032.805-.12l.16-.942c-.302.144-.55.211-.774.211-.53 0-.85-.38-.85-1.006 0-.91.476-1.548 1.157-1.548M33.416 10.984l-.203 1.194c-.248-.318-.516-.548-.87-.548-.459 0-.877.338-1.151.836-.382-.076-.776-.207-.776-.207v.003c.03-.279.043-.448.04-.506h-.837c-.114 1.04-.317 2.094-.475 3.135l-.042.226h.912c.123-.776.217-1.42.286-1.931.312-.274.468-.511.782-.496-.14.327-.22.704-.22 1.09 0 .84.437 1.395 1.1 1.395.333 0 .59-.112.84-.37l-.044.312h.862l.694-4.133h-.898Zm-1.14 3.357c-.31 0-.467-.224-.467-.663 0-.66.294-1.129.707-1.129.313 0 .483.231.483.658 0 .667-.299 1.134-.723 1.134Z" clip-rule="evenodd"/><path fill="#fff" fill-rule="evenodd" d="M11.803 14.872h-.91l.521-3.177-1.165 3.177h-.62l-.078-3.159-.548 3.159H8.15l.712-4.133h1.31l.037 2.559.884-2.559h1.415l-.705 4.133M14.047 13.375a1.56 1.56 0 0 0-.204-.014c-.516 0-.777.172-.777.511 0 .21.127.343.326.343.371 0 .639-.343.655-.84Zm.662 1.497h-.755l.018-.348c-.23.275-.538.406-.955.406-.494 0-.832-.375-.832-.918 0-.819.588-1.296 1.6-1.296.102 0 .235.01.37.027a.812.812 0 0 0 .036-.219c0-.222-.159-.305-.584-.305a3.107 3.107 0 0 0-.965.15l.127-.755c.454-.13.753-.178 1.09-.178.782 0 1.197.341 1.196.985.002.173-.028.387-.074.666-.079.487-.249 1.531-.272 1.785ZM26.928 10.85l-.15.898c-.324-.16-.56-.223-.813-.223-.68 0-1.157.638-1.157 1.548 0 .627.32 1.006.85 1.006.225 0 .472-.067.774-.212l-.16.942a2.922 2.922 0 0 1-.805.121c-.981 0-1.592-.684-1.592-1.784 0-1.477.845-2.51 2.052-2.51.398 0 .868.164 1.001.215M28.398 13.375a1.548 1.548 0 0 0-.203-.014c-.516 0-.778.172-.778.511 0 .21.128.343.327.343.37 0 .639-.343.654-.84Zm.663 1.497h-.755l.017-.348c-.23.275-.537.406-.954.406-.494 0-.832-.375-.832-.918 0-.819.588-1.296 1.599-1.296.103 0 .235.01.37.027a.81.81 0 0 0 .036-.219c0-.222-.158-.305-.584-.305a3.11 3.11 0 0 0-.964.15l.126-.755c.454-.13.753-.178 1.09-.178.783 0 1.197.341 1.196.985a4.15 4.15 0 0 1-.073.666c-.08.487-.249 1.531-.272 1.785ZM18.758 14.82c-.25.077-.444.11-.654.11-.466 0-.72-.26-.72-.738-.007-.149.067-.539.125-.896.052-.314.395-2.293.395-2.293h.905l-.106.508h.465l-.124.808h-.466c-.105.64-.255 1.435-.257 1.54 0 .175.095.25.312.25.104 0 .184-.01.246-.032l-.121.744M21.535 14.794a3.184 3.184 0 0 1-.93.136c-1.014 0-1.542-.515-1.542-1.5 0-1.148.672-1.994 1.584-1.994.748 0 1.224.473 1.224 1.217 0 .246-.033.486-.111.826h-1.804c-.06.488.26.69.788.69.323 0 .616-.064.941-.211l-.15.836Zm-.51-1.993c.006-.07.097-.6-.42-.6-.29 0-.496.214-.58.6h1ZM15.255 12.573c0 .426.213.719.694.94.37.168.426.217.426.37 0 .21-.162.304-.523.304-.272 0-.524-.04-.816-.132l-.125.775c.207.044.391.085.948.1.961 0 1.405-.355 1.405-1.123 0-.462-.186-.733-.642-.937-.382-.17-.426-.208-.426-.365 0-.182.151-.275.446-.275.178 0 .423.02.654.05l.13-.778a6.38 6.38 0 0 0-.802-.066c-1.019 0-1.372.517-1.368 1.137M33.883 14.872h-.862l.042-.313c-.25.26-.506.371-.84.371-.661 0-1.1-.554-1.1-1.395 0-1.117.68-2.06 1.483-2.06.353 0 .62.14.87.459l.202-1.194h.898l-.694 4.132Zm-1.345-.777c.425 0 .723-.466.723-1.132 0-.427-.17-.66-.483-.66-.413 0-.706.47-.706 1.13 0 .44.157.662.466.662ZM29.881 11.511c-.114 1.04-.316 2.094-.475 3.135l-.041.226h.911c.326-2.055.404-2.456.916-2.406.081-.421.233-.79.345-.975-.381-.077-.594.132-.873.53.022-.172.062-.34.054-.51h-.837M22.382 11.511c-.114 1.04-.317 2.094-.475 3.135l-.042.226h.912c.326-2.055.404-2.456.915-2.406.081-.421.233-.79.346-.975-.381-.077-.595.132-.873.53.021-.172.062-.34.054-.51h-.837" clip-rule="evenodd"/></svg>