<svg xmlns="http://www.w3.org/2000/svg" width="43" height="26" fill="none"><rect width="43" height="25.05" fill="#fff" rx="4"/><path fill="#26337A" fill-rule="evenodd" d="m17.84 16.51 1.323-7.963h2.113l-1.322 7.964h-2.113ZM27.62 8.743a5.362 5.362 0 0 0-1.894-.334c-2.09 0-3.56 1.08-3.572 2.628-.013 1.144 1.05 1.783 1.85 2.163.824.39 1.1.64 1.098.989-.006.533-.658.777-1.265.777-.846 0-1.296-.12-1.991-.417l-.272-.127-.295 1.782c.492.222 1.406.415 2.354.425 2.22 0 3.664-1.068 3.68-2.72.008-.908-.555-1.596-1.775-2.164-.738-.37-1.191-.614-1.186-.988 0-.33.383-.685 1.21-.685a3.802 3.802 0 0 1 1.582.306l.19.091.286-1.726ZM30.434 13.687c.175-.457.842-2.226.842-2.226-.012.021.174-.46.281-.76l.143.688.489 2.298h-1.755Zm2.607-5.132h-1.633c-.506 0-.886.141-1.108.66l-3.138 7.299h2.22s.362-.982.444-1.198l2.707.004c.063.278.257 1.194.257 1.194h1.962l-1.71-7.959ZM16.068 8.554l-2.069 5.43-.221-1.104c-.386-1.272-1.586-2.65-2.928-3.34l1.892 6.964 2.237-.002 3.328-7.948h-2.24Z" clip-rule="evenodd"/><path fill="#EC982D" fill-rule="evenodd" d="M12.079 8.549H8.67l-.028.165c2.652.66 4.406 2.252 5.135 4.165l-.741-3.659c-.128-.504-.5-.654-.958-.671Z" clip-rule="evenodd"/></svg>